<svg width="60" height="60" viewBox="0 0 60 60" fill="none" xmlns="http://www.w3.org/2000/svg">
<path d="M52 7.00098H7.99996C7.44695 7.00098 7 7.44793 7 8.00094V52.001C7 52.5529 7.44695 53.0009 7.99996 53.0009H52C52.553 53.0009 53 52.5529 53 52.001V8.00094C53 7.44793 52.553 7.00098 52 7.00098ZM16.5145 31.574C14.7985 30.821 14.0004 29.685 14.0004 28C14.0004 25.6071 15.6425 23.4261 17.6624 23.138C18.1544 23.067 18.5174 22.5841 18.5174 22.087C18.5174 19.644 20.5045 17.656 22.9484 17.656C23.3845 17.656 23.8184 17.72 24.2364 17.848C24.5225 17.934 24.8324 17.889 25.0834 17.722C25.3325 17.5559 25.4935 17.287 25.5224 16.989C25.7474 14.715 27.6425 13 29.9304 13C31.7765 13 33.4464 14.167 34.0854 15.9041C34.1964 16.208 34.4485 16.4381 34.7604 16.523C35.0744 16.608 35.4085 16.537 35.6574 16.332C36.4584 15.6751 37.4294 15.3281 38.4654 15.3281C40.9094 15.3281 42.8964 17.3161 42.8964 19.7591C42.8964 20.498 42.7114 21.2291 42.3604 21.8741C42.2184 22.135 42.2004 22.4461 42.3104 22.722C42.4213 22.9991 42.6483 23.2111 42.9313 23.303C44.7664 23.896 46.0004 25.589 46.0004 27.518C46.0004 29.274 44.9594 30.867 43.3473 31.574C42.9073 31.768 42.6673 32.248 42.7764 32.7171C42.8564 33.059 42.8964 33.398 42.8964 33.7251C42.8964 36.1681 40.9094 38.1561 38.4654 38.1561C37.1574 38.1561 36.0954 37.7381 35.3095 36.9141C35.0465 36.6362 34.6464 36.5332 34.2784 36.6521C33.9134 36.7711 33.6474 37.0871 33.5955 37.4671C33.4373 38.6162 32.7272 39.8253 31.6909 40.4887C31.5629 40.5303 31.4465 40.5972 31.3469 40.6832C30.9361 40.884 30.4834 41.0001 30.0004 41.0001C29.518 41.0001 29.0346 40.8714 28.5824 40.6453C28.5156 40.5973 28.4429 40.5575 28.3652 40.527C27.2963 39.9044 26.4419 38.7389 26.2654 37.467C26.2124 37.087 25.9473 36.77 25.5824 36.652C25.4814 36.62 25.3784 36.6039 25.2754 36.6039C25.0054 36.6039 24.7434 36.7129 24.5514 36.915C23.7664 37.738 22.7054 38.156 21.3964 38.156C18.9534 38.156 16.9654 36.168 16.9654 33.725C16.9654 33.398 17.0054 33.059 17.0864 32.717C17.1955 32.2481 16.9555 31.7681 16.5145 31.574ZM29.0001 42.8963C29.3283 42.9639 29.6629 43 30.0005 43C30.3454 43 30.6787 42.9645 31.0001 42.8996V51.0004H29.0001V42.8963ZM51 51.0009H33.0002V42.0214C33.9552 41.3396 34.693 40.3653 35.1406 39.3061C36.0975 39.8661 37.2236 40.156 38.4655 40.156C42.0115 40.156 44.8966 37.271 44.8966 33.725C44.8966 33.5 44.8836 33.271 44.8586 33.042C46.7896 31.8921 48.0006 29.801 48.0006 27.518C48.0006 25.0891 46.6537 22.917 44.5566 21.8231C44.7805 21.1611 44.8966 20.4621 44.8966 19.7591C44.8966 16.2131 42.0115 13.328 38.4655 13.328C37.4005 13.328 36.3525 13.5961 35.4216 14.095C34.2706 12.205 32.1916 11 29.9305 11C26.9855 11 24.4895 12.958 23.7336 15.704C23.4735 15.672 23.2116 15.656 22.9485 15.656C19.6715 15.656 16.9605 18.119 16.5695 21.339C13.9505 22.142 12.0005 24.9059 12.0005 28C12.0005 30.218 13.0345 31.951 15.0036 33.0541C14.9786 33.2791 14.9656 33.503 14.9656 33.7251C14.9656 37.2711 17.8506 40.1561 21.3966 40.1561C22.6405 40.1561 23.7686 39.8652 24.7255 39.3042C25.2111 40.4221 26.0199 41.3805 27.0002 42.0412V51.001H9.00004V9.00102H51V51.0009Z" fill="#444557"/>
<path d="M59 52.0005C59 50.5655 58.22 49.2554 57 48.5494V11.4515C58.22 10.7454 59 9.43443 59 8.00041C59 7.60139 58.94 7.21045 58.819 6.83146C59.57 6.08943 60 5.07951 60 4.00045C60 1.79451 58.206 0.000488281 56 0.000488281C54.9211 0.000488281 53.9111 0.430449 53.169 1.1815C52.789 1.06045 52.399 1.00045 52.0001 1.00045C50.5651 1.00045 49.254 1.78045 48.549 3.00049H11.451C10.746 1.78045 9.43605 1.00045 8.00004 1.00045C7.60207 1.00045 7.21102 1.06045 6.83109 1.1815C6.08895 0.430449 5.07902 0.000488281 3.99996 0.000488281C1.79402 0.000488281 0 1.79451 0 4.00045C0 5.07939 0.431016 6.08943 1.18195 6.83146C1.0609 7.21045 0.999961 7.6015 0.999961 8.00041C0.999961 9.43443 1.78102 10.7454 3 11.4515V48.5495C1.78102 49.2556 0.999961 50.5655 0.999961 52.0006C0.999961 52.3996 1.06102 52.7896 1.18195 53.1695C0.431016 53.9115 0 54.9215 0 56.0005C0 58.2055 1.79402 60.0005 3.99996 60.0005C5.07891 60.0005 6.08895 59.5705 6.83098 58.8195C7.21102 58.9395 7.60195 59.0004 7.99992 59.0004C9.43594 59.0004 10.746 58.2204 11.451 57.0004H48.549C49.254 58.2204 50.565 59.0004 52.0001 59.0004C52.3991 59.0004 52.7891 58.9394 53.169 58.8195C53.9111 59.5705 54.921 60.0005 56 60.0005C58.206 60.0005 60 58.2055 60 56.0005C60 54.9216 59.57 53.9115 58.819 53.1695C58.94 52.7895 59 52.3995 59 52.0005ZM56 58.0005C55.3171 58.0005 54.6871 57.6504 54.3161 57.0654C54.1261 56.7663 53.8021 56.6004 53.4701 56.6004C53.3031 56.6004 53.1341 56.6424 52.9791 56.7304C51.8611 57.3614 50.5221 56.7804 50.126 55.6654C49.985 55.2674 49.607 55.0003 49.1841 55.0003H10.817C10.3939 55.0003 10.016 55.2673 9.87398 55.6654C9.47895 56.7804 8.13902 57.3614 7.02199 56.7304C6.55699 56.4674 5.96895 56.6154 5.685 57.0654C5.31398 57.6504 4.68398 58.0005 3.99996 58.0005C2.89793 58.0005 1.99992 57.1035 1.99992 56.0004C1.99992 55.3164 2.34996 54.6864 2.9359 54.3154C3.38695 54.0293 3.53285 53.4403 3.26988 52.9753C3.09094 52.6614 2.99988 52.3334 2.99988 52.0003C2.99988 51.1634 3.5359 50.4103 4.33488 50.1253C4.73391 49.9844 4.99992 49.6063 4.99992 49.1834V10.8165C4.99992 10.3935 4.73391 10.0165 4.33488 9.87459C3.53602 9.59053 3 8.83748 3 8.00053C3 7.66748 3.09105 7.33947 3.27 7.02459C3.53297 6.56064 3.38695 5.97154 2.93602 5.68561C2.34996 5.31459 2.00004 4.68459 2.00004 4.00057C2.00004 2.8976 2.89805 2.00053 4.00008 2.00053C4.6841 2.00053 5.3141 2.35057 5.68512 2.93557C5.96906 3.38557 6.55711 3.53357 7.02211 3.27061C8.13914 2.63955 9.47906 3.22057 9.8741 4.33561C10.0161 4.73357 10.3941 5.00064 10.8171 5.00064H49.1841C49.6071 5.00064 49.985 4.73369 50.126 4.33561C50.522 3.22057 51.861 2.63955 52.9791 3.27061C53.4421 3.53357 54.0311 3.38557 54.3161 2.93557C54.6871 2.35057 55.3171 2.00053 56 2.00053C57.103 2.00053 58.0001 2.89748 58.0001 4.00057C58.0001 4.68459 57.6511 5.31459 57.065 5.68561C56.614 5.97154 56.467 6.56064 56.7311 7.02459C56.9091 7.33959 57 7.6676 57 8.00053C57 8.83748 56.464 9.59053 55.665 9.87447C55.267 10.0165 55 10.3935 55 10.8164V49.1834C55 49.6064 55.2669 49.9844 55.665 50.1253C56.464 50.4103 57 51.1634 57 52.0003C57 52.3334 56.9089 52.6614 56.7311 52.9753C56.467 53.4403 56.6141 54.0293 57.065 54.3154C57.651 54.6864 58.0001 55.3164 58.0001 56.0004C58 57.1035 57.103 58.0005 56 58.0005Z" fill="#444557"/>
<path d="M38.4656 37.0525C40.3006 37.0525 41.7925 35.5595 41.7925 33.7245C41.7925 33.4794 41.7625 33.2325 41.7016 32.9675C41.5765 32.4285 41.0345 32.0964 40.5016 32.2194C39.9636 32.3445 39.6285 32.8814 39.7526 33.4194C39.7796 33.5335 39.7926 33.6345 39.7926 33.7245C39.7926 34.4564 39.1966 35.0525 38.4656 35.0525C37.8225 35.0525 37.6286 34.8484 37.5556 34.7725C37.1746 34.3725 36.5406 34.3575 36.1425 34.7385C35.7415 35.1195 35.7276 35.7525 36.1086 36.1525C36.6775 36.7494 37.4705 37.0525 38.4656 37.0525Z" fill="#444557"/>
<path d="M21.3975 37.0525C22.3925 37.0525 23.1855 36.7494 23.7545 36.1525C24.1355 35.7525 24.1215 35.1194 23.7214 34.7385C23.3215 34.3584 22.6895 34.3725 22.3075 34.7725C22.2345 34.8485 22.0405 35.0524 21.3975 35.0524C20.6665 35.0524 20.0705 34.4564 20.0705 33.7244C20.0705 33.6314 20.0835 33.5325 20.1084 33.4244C20.2364 32.8864 19.9044 32.3475 19.3664 32.2194C18.8284 32.0924 18.2895 32.4254 18.1634 32.9624C18.1003 33.2244 18.0703 33.4734 18.0703 33.7243C18.0705 35.5594 19.5626 37.0525 21.3975 37.0525Z" fill="#444557"/>
<path d="M20.5896 23.0078H20.6236C21.1596 23.0078 21.6037 22.5818 21.6216 22.0418C21.6505 21.2038 22.5335 20.5748 23.3346 20.8168C23.8667 20.9788 24.4226 20.6808 24.5836 20.1538C24.7456 19.6257 24.4486 19.0668 23.9206 18.9048C23.6045 18.8078 23.2776 18.7588 22.9486 18.7588C21.1446 18.7588 19.6846 20.1718 19.6236 21.9738C19.6047 22.5267 20.0366 22.9888 20.5896 23.0078Z" fill="#444557"/>
<path d="M22.3944 26.259C22.3044 26.804 22.6724 27.318 23.2174 27.409C23.2734 27.418 23.3275 27.422 23.3814 27.422C23.8614 27.422 24.2853 27.075 24.3663 26.585C24.6434 24.916 26.0153 23.6631 27.7034 23.539C28.2544 23.499 28.6684 23.019 28.6274 22.468C28.5874 21.918 28.1204 21.51 27.5573 21.544C24.9435 21.736 22.8205 23.675 22.3944 26.259Z" fill="#444557"/>
<path d="M28.1845 32.272C28.2955 32.73 28.7045 33.0381 29.1556 33.0381C29.2336 33.0381 29.3115 33.0291 29.3905 33.0101C31.9375 32.3951 33.7176 30.1371 33.7176 27.5171C33.7176 26.9651 33.2696 26.5171 32.7176 26.5171C32.1646 26.5171 31.7176 26.9651 31.7176 27.5171C31.7176 29.2101 30.5677 30.669 28.9226 31.0661C28.3846 31.1951 28.0546 31.7362 28.1845 32.272Z" fill="#444557"/>
<path d="M37.626 18.7319C37.902 18.5049 38.235 18.4059 38.595 18.4369C39.254 18.4919 39.803 19.1069 39.7931 19.7789C39.79 20.0009 39.7381 20.2 39.636 20.388L38.8031 21.9169C38.423 22.6139 38.3731 23.437 38.667 24.1749C38.962 24.9129 39.565 25.4768 40.32 25.7209L41.864 26.2199C42.372 26.3839 42.753 26.7579 42.857 27.198C43.0101 27.828 42.69 28.473 42.1 28.733C41.594 28.956 41.364 29.545 41.587 30.051C41.7509 30.426 42.1179 30.649 42.5029 30.649C42.6368 30.649 42.7739 30.6221 42.9039 30.5641C44.3829 29.914 45.1809 28.3011 44.8029 26.7311C44.536 25.6191 43.6459 24.6931 42.4799 24.3161L40.936 23.818C40.679 23.7351 40.568 23.5421 40.525 23.434C40.482 23.327 40.43 23.1111 40.559 22.874L41.393 21.344C41.6491 20.871 41.7841 20.355 41.793 19.81C41.8179 18.096 40.459 16.5861 38.7619 16.444C37.884 16.377 37.0309 16.634 36.3579 17.185C35.9309 17.535 35.8689 18.165 36.219 18.592C36.569 19.0179 37.1981 19.0809 37.626 18.7319Z" fill="#444557"/>
</svg>
