<svg width="60" height="60" viewBox="0 0 60 60" fill="none" xmlns="http://www.w3.org/2000/svg">
<g clip-path="url(#clip0_179_61)">
<path d="M3 42H4C4 43.1046 4.89543 44 6 44H14V46C14.0032 46.9147 14.6267 47.7107 15.514 47.933L8.08 54.8C7.17564 55.6384 6.87649 56.9449 7.32592 58.0933C7.77534 59.2417 8.88178 59.9981 10.115 60H10.215C10.97 59.9996 11.6969 59.7139 12.25 59.2L19 52.975V57C19 58.6569 20.3431 60 22 60C23.6569 60 25 58.6569 25 57V52.975L31.747 59.2C32.3001 59.7139 33.027 59.9996 33.782 60H33.882C35.1152 59.9981 36.2217 59.2417 36.6711 58.0933C37.1205 56.9449 36.8214 55.6384 35.917 54.8L28.483 47.938C29.3733 47.7164 29.9987 46.9175 30 46V44H38C39.1046 44 40 43.1046 40 42H41C41.8433 41.9982 42.6463 41.6392 43.21 41.012L52.01 57.734C52.7484 59.1284 54.1972 60.0004 55.775 60C56.3477 60.0003 56.9143 59.8832 57.44 59.656C59.4666 58.7707 60.4784 56.4816 59.769 54.387L52.976 34.6C52.7027 33.8108 52.1143 33.1702 51.351 32.831C51.0955 32.7232 50.8263 32.6515 50.551 32.618C51.5419 30.7464 51.6301 28.5264 50.791 26.582C49.3543 23.3775 46.9885 20.6783 44 18.834V5C44 3.34315 42.6569 2 41 2H29C29 0.89543 28.1046 0 27 0H17C15.8954 0 15 0.89543 15 2H3C1.34315 2 0 3.34315 0 5V39C0 40.6569 1.34315 42 3 42ZM10.9 57.735C10.7153 57.9054 10.4733 58 10.222 58H10.122C9.71021 58 9.34054 57.7475 9.19066 57.364C9.04078 56.9804 9.14134 56.5442 9.444 56.265L18.391 48H19V50.252L10.9 57.735ZM23 57C23 57.5523 22.5523 58 22 58C21.4477 58 21 57.5523 21 57V48H23V57ZM34.816 57.364C34.6716 57.7517 34.2987 58.0065 33.885 58H33.785C33.5335 58.0005 33.2911 57.9054 33.107 57.734L25 50.252V48H25.609L34.562 56.265C34.8704 56.5408 34.9721 56.9808 34.816 57.364ZM28 46H16V44H28V46ZM29 42H6V40H38V42H29ZM56.647 57.816C55.5721 58.2735 54.3259 57.8332 53.777 56.802L47.737 45.321L53.665 42.762L57.878 55.032C58.2524 56.1388 57.7177 57.3482 56.647 57.816ZM51.085 35.249L53.013 40.865L46.803 43.545L44.038 38.291C43.9086 38.0445 43.8878 37.7552 43.9806 37.4927C44.0734 37.2303 44.2714 37.0183 44.527 36.908L49.742 34.656C49.9967 34.543 50.2873 34.543 50.542 34.656C50.7989 34.7677 50.9963 34.9833 51.085 35.249ZM49.007 31.2C48.521 32.4345 47.5614 33.4232 46.342 33.946C43.807 35.0396 40.8654 33.8717 39.771 31.337C39.0496 29.6316 39.0188 27.7127 39.685 25.985C40.4324 26.3944 41.2689 26.6138 42.121 26.624C42.7992 26.6212 43.4695 26.4786 44.09 26.205C45.1987 25.7355 46.1629 24.9802 46.884 24.016C47.7229 25.0359 48.4183 26.1657 48.951 27.374C49.4799 28.5907 49.5 29.9684 49.007 31.2ZM45.48 22.5C44.9695 23.3398 44.2044 23.9949 43.296 24.37C42.2523 24.8017 41.0572 24.6398 40.166 23.946C40.3013 23.1162 40.2001 22.265 39.874 21.49C39.4403 20.4951 38.8104 19.5979 38.022 18.852C40.8475 19.1949 43.4749 20.48 45.48 22.5ZM17 2H27V4H17V2ZM2 5C2 4.44772 2.44772 4 3 4H15V5C15 5.55228 15.4477 6 16 6H28C28.5523 6 29 5.55228 29 5V4H41C41.5523 4 42 4.44772 42 5V17.8C39.7705 16.8065 37.2779 16.5671 34.9 17.118C34.4783 17.2227 34.1724 17.5878 34.1432 18.0213C34.114 18.4549 34.3681 18.8577 34.772 19.018C36.2188 19.6779 37.3793 20.837 38.041 22.283C38.3135 23.2744 38.2325 24.3297 37.812 25.268C37.8 25.309 37.788 25.353 37.776 25.394C35.0482 23.1157 33.0302 20.1035 31.961 16.714C31.8343 16.2907 31.4448 16.0008 31.003 16.0008C30.5612 16.0008 30.1717 16.2907 30.045 16.714C28.559 21.68 24.93 25.114 21.884 27.236C20.032 25.0685 18.6946 22.5099 17.972 19.752C17.8591 19.309 17.4601 18.9991 17.003 18.9991C16.5459 18.9991 16.1469 19.309 16.034 19.752C13.619 29.132 4.7 33.042 4.608 33.08C4.11026 33.3025 3.88252 33.8828 4.09601 34.3845C4.3095 34.8862 4.88553 35.1244 5.391 34.92C10.5498 32.5076 14.6699 28.3215 17 23.125C19.3292 28.3234 23.4493 32.5113 28.609 34.925C28.7329 34.9764 28.8659 35.0019 29 35C29.4754 35.0005 29.8854 34.6663 29.9808 34.2005C30.0761 33.7348 29.8304 33.2663 29.393 33.08C27.1171 31.9762 25.0411 30.501 23.25 28.715C26.5572 26.4595 29.2266 23.3889 31 19.8C32.4747 22.837 34.6225 25.4978 37.28 27.58C37.0644 29.128 37.2911 30.7054 37.934 32.13C38.7745 34.0737 40.4519 35.5307 42.494 36.091C42.3263 36.3161 42.1916 36.5639 42.094 36.827C41.9177 37.3419 41.8852 37.895 42 38.427V39C42 39.5523 41.5523 40 41 40H40V39C40 38.4477 39.5523 38 39 38H5C4.44772 38 4 38.4477 4 39V40H3C2.44772 40 2 39.5523 2 39V5Z" fill="#444557"/>
<path d="M11 18C13.7614 18 16 15.7614 16 13C16 10.2386 13.7614 8 11 8C8.23858 8 6 10.2386 6 13C6.00331 15.7601 8.23995 17.9967 11 18ZM11 10C12.6569 10 14 11.3431 14 13C14 14.6569 12.6569 16 11 16C9.34315 16 8 14.6569 8 13C8 11.3431 9.34315 10 11 10Z" fill="#444557"/>
</g>
<defs>
<clipPath id="clip0_179_61">
<rect width="60" height="60" fill="white"/>
</clipPath>
</defs>
</svg>
