<svg width="60" height="60" viewBox="0 0 60 60" fill="none" xmlns="http://www.w3.org/2000/svg">
<g clip-path="url(#clip0_179_66)">
<path d="M55 58V2C55 0.89543 54.1046 0 53 0H9C6.79086 0 5 1.79086 5 4V56C5 58.2091 6.79086 60 9 60H53C54.1046 60 55 59.1046 55 58ZM9 2H53V50H9C8.29748 50.0012 7.60768 50.1875 7 50.54V4C7 2.89543 7.89543 2 9 2ZM11 52H48V54H12C11.4477 54 11 53.5523 11 53V52ZM53 58H9C7.89543 58 7 57.1046 7 56V54C7 52.8954 7.89543 52 9 52V53C9 54.6569 10.3431 56 12 56H48C49.1046 56 50 55.1046 50 54V52H53V58Z" fill="#444557"/>
<path d="M12 47H48C49.1046 47 50 46.1046 50 45V7C50 5.89543 49.1046 5 48 5H12C10.8954 5 10 5.89543 10 7V45C10 46.1046 10.8954 47 12 47ZM12 7H48V45H12V7Z" fill="#444557"/>
<path d="M40.9995 20.29L40.8595 20.22C40.416 17.8711 38.3893 16.153 35.9995 16.1C34.6595 16.1 34.2895 16.54 34.1795 16.36C33.6553 15.5189 32.8979 14.8484 31.9995 14.43L32.7195 13.71C33.1012 13.3341 33.3161 12.8208 33.3161 12.285C33.3161 11.7493 33.1012 11.2359 32.7195 10.86L31.4295 9.59003C31.0532 9.20521 30.5377 8.98828 29.9995 8.98828C29.4613 8.98828 28.9458 9.20521 28.5695 9.59003L27.2995 10.86C26.9178 11.2359 26.7028 11.7493 26.7028 12.285C26.7028 12.8208 26.9178 13.3341 27.2995 13.71L28.0195 14.43C27.1137 14.8451 26.349 15.516 25.8195 16.36C25.7972 16.404 25.7463 16.4252 25.6995 16.41C24.3087 15.9204 22.7728 16.0696 21.5022 16.8176C20.2317 17.5657 19.3561 18.8364 19.1095 20.29C12.1795 20.29 12.4095 31.71 18.9995 31.71L19.1095 31.78C19.3713 33.2227 20.2531 34.4778 21.5216 35.2131C22.7901 35.9484 24.3175 36.0899 25.6995 35.6C25.7336 35.5695 25.7853 35.5695 25.8195 35.6C26.3376 36.456 27.0956 37.1409 27.9995 37.57L27.2795 38.29C26.8978 38.6659 26.6828 39.1793 26.6828 39.715C26.6828 40.2508 26.8978 40.7641 27.2795 41.14L28.5495 42.41C28.9258 42.7949 29.4413 43.0118 29.9795 43.0118C30.5177 43.0118 31.0332 42.7949 31.4095 42.41L32.6795 41.14C33.0612 40.7641 33.2761 40.2508 33.2761 39.715C33.2761 39.1793 33.0612 38.6659 32.6795 38.29L31.9995 37.57C32.9053 37.1549 33.67 36.4841 34.1995 35.64C34.235 35.6134 34.2839 35.6134 34.3195 35.64C35.7102 36.1297 37.2462 35.9805 38.5167 35.2324C39.7873 34.4844 40.6629 33.2137 40.9095 31.76C47.8095 31.71 47.5895 20.29 40.9995 20.29ZM29.9995 11L31.2795 12.3L29.9995 13.58L28.7095 12.28L29.9995 11ZM29.9995 41L28.7195 39.7L29.9995 38.42L31.2895 39.72L29.9995 41ZM40.9995 29.71C39.9713 29.6456 39.0623 30.3727 38.8995 31.39C38.749 32.2494 38.232 33.0007 37.483 33.4481C36.7341 33.8956 35.8275 33.9948 34.9995 33.72C34.0618 33.3736 33.0097 33.7326 32.4795 34.58C31.9707 35.4823 31.0153 36.0405 29.9795 36.0405C28.9437 36.0405 27.9882 35.4823 27.4795 34.58C27.0958 33.9597 26.4189 33.5816 25.6895 33.58C25.0395 33.58 24.7895 33.89 23.9595 33.89C22.5073 33.8549 21.2815 32.8006 21.0295 31.37C20.8666 30.3959 20.017 29.6865 19.0295 29.7C16.9995 29.71 15.9995 28 15.9995 26C15.9995 24 16.9495 22.29 19.1095 22.29C20.097 22.3036 20.9466 21.5942 21.1095 20.62C21.2579 19.7613 21.7724 19.0095 22.5192 18.5603C23.266 18.111 24.1713 18.0088 24.9995 18.28C25.9371 18.6265 26.9892 18.2674 27.5195 17.42C28.0282 16.5178 28.9837 15.9596 30.0195 15.9596C31.0553 15.9596 32.0107 16.5178 32.5195 17.42C33.0497 18.2674 34.1018 18.6265 35.0395 18.28C35.8713 17.9948 36.7863 18.0888 37.5427 18.5372C38.2991 18.9857 38.8207 19.7434 38.9695 20.61C39.1279 21.5881 39.9787 22.3028 40.9695 22.29H40.9995C43.1895 22.29 43.9995 24.2 43.9995 26C43.9995 27.8 43.2195 29.71 40.9995 29.71Z" fill="#444557"/>
<path d="M39 41C39.5523 41 40 40.5523 40 40C40 39.4477 39.5523 39 39 39C38.4477 39 38 39.4477 38 40C38 40.5523 38.4477 41 39 41Z" fill="#444557"/>
<path d="M21 41C21.5523 41 22 40.5523 22 40C22 39.4477 21.5523 39 21 39C20.4477 39 20 39.4477 20 40C20 40.5523 20.4477 41 21 41Z" fill="#444557"/>
<path d="M44 37C44.5523 37 45 36.5523 45 36C45 35.4477 44.5523 35 44 35C43.4477 35 43 35.4477 43 36C43 36.5523 43.4477 37 44 37Z" fill="#444557"/>
<path d="M16 37C16.5523 37 17 36.5523 17 36C17 35.4477 16.5523 35 16 35C15.4477 35 15 35.4477 15 36C15 36.5523 15.4477 37 16 37Z" fill="#444557"/>
<path d="M44 17C44.5523 17 45 16.5523 45 16C45 15.4477 44.5523 15 44 15C43.4477 15 43 15.4477 43 16C43 16.5523 43.4477 17 44 17Z" fill="#444557"/>
<path d="M16 17C16.5523 17 17 16.5523 17 16C17 15.4477 16.5523 15 16 15C15.4477 15 15 15.4477 15 16C15 16.5523 15.4477 17 16 17Z" fill="#444557"/>
<path d="M39 13C39.5523 13 40 12.5523 40 12C40 11.4477 39.5523 11 39 11C38.4477 11 38 11.4477 38 12C38 12.5523 38.4477 13 39 13Z" fill="#444557"/>
<path d="M21 13C21.5523 13 22 12.5523 22 12C22 11.4477 21.5523 11 21 11C20.4477 11 20 11.4477 20 12C20 12.5523 20.4477 13 21 13Z" fill="#444557"/>
</g>
<defs>
<clipPath id="clip0_179_66">
<rect width="60" height="60" fill="white"/>
</clipPath>
</defs>
</svg>
