<svg width="60" height="60" viewBox="0 0 60 60" fill="none" xmlns="http://www.w3.org/2000/svg">
<path d="M55.4212 50.1834H48.24C48.9433 47.3052 49.3207 44.357 49.365 41.3944H58.125C57.974 44.5043 57.0443 47.5264 55.4212 50.1834ZM20.7188 41.3944H29.4825C29.5268 44.357 29.9042 47.3052 30.6075 50.1834H23.4263C21.8023 47.5266 20.8714 44.5045 20.7188 41.3944ZM23.4225 30.7303H30.6038C29.9004 33.6086 29.5231 36.5568 29.4788 39.5194H20.7188C20.8705 36.4095 21.8005 33.3875 23.4234 30.7303H23.4225ZM40.3594 28.8553V21.8513C42.4969 22.455 44.4066 25.08 45.7144 28.8553H40.3594ZM46.2834 30.7303C47.0306 33.6021 47.4343 36.5524 47.4863 39.5194H40.3612V30.7303H46.2834ZM38.4844 21.8513V28.8553H33.1303C34.4372 25.08 36.3469 22.455 38.4853 21.8513H38.4844ZM38.4844 30.7303V39.5194H31.3594C31.4111 36.5524 31.8152 33.602 32.5631 30.7303H38.4844ZM31.3594 41.3944H38.4844V50.1834H32.5612C31.8133 47.3118 31.4093 44.3614 31.3575 41.3944H31.3594ZM38.4844 52.0584V59.0625C36.3459 58.4588 34.4363 55.8338 33.1294 52.0584H38.4844ZM40.3594 59.0625V52.0584H45.7144C44.4075 55.8338 42.4978 58.4588 40.3603 59.0625H40.3594ZM40.3594 50.1834V41.3944H47.4844C47.4324 44.3613 47.0287 47.3116 46.2816 50.1834H40.3594ZM49.3594 39.5194C49.3151 36.5568 48.9377 33.6086 48.2344 30.7303H55.4156C57.0406 33.3868 57.9723 36.409 58.125 39.5194H49.3594ZM54.1219 28.8553H47.7066C47.0103 26.4829 45.8419 24.2757 44.2716 22.3659C48.1678 23.4139 51.6226 25.6895 54.1237 28.8553H54.1219ZM34.5731 22.3659C33.0032 24.2759 31.8349 26.4831 31.1381 28.8553H24.7219C27.2226 25.6893 30.6771 23.4137 34.5731 22.3659ZM24.7219 52.0584H31.1381C31.8349 54.4306 33.0032 56.6378 34.5731 58.5478C30.6771 57.5001 27.2226 55.2244 24.7219 52.0584ZM44.2716 58.5478C45.8419 56.6381 47.0103 54.4308 47.7066 52.0584H54.1237C51.6226 55.2243 48.1678 57.4999 44.2716 58.5478Z" fill="#F7F7F7"/>
<path d="M25.3134 0.937511C21.6109 0.933981 17.9602 1.80767 14.6605 3.48699C11.3608 5.16632 8.50586 7.6035 6.32961 10.5989C4.15336 13.5943 2.71772 17.0626 2.1403 20.7198C1.56288 24.377 1.8601 28.1189 3.00762 31.6391C4.15514 35.1592 6.12031 38.3574 8.74213 40.9717C11.364 43.586 14.5678 45.5419 18.0913 46.6793C21.6147 47.8166 25.3575 48.1031 29.013 47.5151C32.6685 46.9271 36.1327 45.4815 39.1218 43.2966C39.1813 43.2634 39.2369 43.2238 39.2877 43.1784C44.1436 39.5684 47.4168 34.2217 48.4237 28.2553C48.4237 28.2366 48.4321 28.2188 48.434 28.2C48.9917 24.844 48.8117 21.4067 47.9064 18.1273C47.0011 14.8479 45.3923 11.8051 43.1919 9.21044C40.9915 6.61581 38.2522 4.53167 35.1647 3.10297C32.0771 1.67428 28.7154 0.935326 25.3134 0.937511ZM29.2509 3.17907C33.6397 3.99745 37.6657 6.15968 40.7718 9.36657C40.0471 10.0554 39.1805 10.5773 38.2327 10.8958C37.285 11.2144 36.2791 11.3217 35.2855 11.2104C34.2919 11.0991 33.3346 10.7719 32.4808 10.2516C31.6271 9.73126 30.8974 9.03051 30.343 8.19845C29.3995 6.70605 29.0127 4.9286 29.2509 3.17907ZM16.8759 4.53376C16.9855 4.9772 15.7771 13.1531 23.6493 17.0906C23.8679 17.1997 24.0517 17.3676 24.1801 17.5755C24.3085 17.7833 24.3763 18.0229 24.3759 18.2672V27.0938C24.3802 28.3984 24.0504 29.6823 23.418 30.8234C22.7855 31.9644 21.8714 32.9245 20.7627 33.6122C20.5639 33.7374 20.3352 33.8069 20.1004 33.8135C19.8655 33.8202 19.6332 33.7636 19.4277 33.6498C19.2221 33.5361 19.0509 33.3692 18.9319 33.1667C18.8128 32.9641 18.7503 32.7334 18.7509 32.4984C18.749 31.8495 18.55 31.2165 18.1804 30.6831C17.8107 30.1497 17.2878 29.7412 16.6809 29.5116L13.5946 28.3528C12.9083 28.0936 12.3167 27.6322 11.8982 27.0296C11.4798 26.4269 11.254 25.7115 11.2509 24.9778C11.2535 24.3356 11.0612 23.7078 10.6993 23.1773C10.3373 22.6468 9.82289 22.2387 9.22399 22.0069L4.18961 20.0381C4.89832 16.6228 6.42201 13.4293 8.63089 10.7298C10.8398 8.03022 13.6684 5.90453 16.8759 4.53376ZM38.5743 41.3588L36.9609 40.5066C36.0677 40.0277 35.3522 39.2743 34.92 38.3577C34.4879 37.441 34.3619 36.4097 34.5609 35.4159C34.6454 34.9927 34.6881 34.5622 34.6884 34.1306V29.5125C34.6893 28.5862 34.9647 27.681 35.4797 26.911C35.9947 26.1411 36.7263 25.541 37.5821 25.1866C38.4378 24.8321 39.3795 24.7391 40.2881 24.9194C41.1967 25.0996 42.0315 25.545 42.6871 26.1994L42.8277 26.34C43.2712 26.785 43.7764 27.1639 44.3277 27.465L46.4559 28.6247C45.4325 33.674 42.637 38.1907 38.5743 41.3588ZM46.7549 26.6503L45.223 25.815C44.8302 25.6004 44.47 25.3308 44.1534 25.0144L44.0127 24.8738C43.0949 23.9573 41.926 23.3334 40.6537 23.0808C39.3815 22.8282 38.0629 22.9583 36.8646 23.4547C35.6662 23.951 34.6418 24.7914 33.9208 25.8696C33.1997 26.9477 32.8144 28.2154 32.8134 29.5125V34.1306C32.814 34.4483 32.7826 34.7652 32.7196 35.0766C32.4489 36.4629 32.63 37.8995 33.2363 39.1752C33.8426 40.451 34.8422 41.4986 36.088 42.1641L36.8615 42.5728C33.6027 44.6456 29.8467 45.8044 25.9866 45.928C22.1264 46.0515 18.304 45.1352 14.9194 43.275C11.5348 41.4148 8.7124 38.6791 6.74758 35.3541C4.78275 32.0291 3.74774 28.2371 3.75086 24.375C3.7523 23.5583 3.79987 22.7423 3.89336 21.9309L8.54055 23.7497C8.78708 23.8459 8.99877 24.0144 9.14784 24.2331C9.29691 24.4517 9.37639 24.7104 9.37586 24.975C9.37986 26.0908 9.72262 27.1791 10.3588 28.0959C10.9949 29.0126 11.8945 29.7145 12.9384 30.1088L16.0265 31.2675C16.2761 31.3625 16.491 31.531 16.6426 31.7509C16.7943 31.9707 16.8757 32.2314 16.8759 32.4984C16.8751 33.0682 17.0271 33.6276 17.316 34.1187C17.6048 34.6097 18.02 35.0144 18.5183 35.2905C19.0166 35.5667 19.5798 35.7042 20.1493 35.6888C20.7188 35.6735 21.2738 35.5057 21.7565 35.2031C23.1356 34.3475 24.2726 33.153 25.0593 31.7335C25.8461 30.314 26.2563 28.7167 26.2509 27.0938V18.2672C26.253 17.6743 26.0889 17.0926 25.7772 16.5882C25.4655 16.0838 25.0187 15.6768 24.4874 15.4134C17.5415 11.94 18.9046 4.52439 18.7509 3.8372C20.8719 3.15709 23.0859 2.81139 25.3134 2.81251C26.0127 2.81251 26.7037 2.84907 27.3862 2.9147C27.0923 5.12113 27.5867 7.36048 28.7821 9.23814C29.4857 10.293 30.4107 11.1818 31.4927 11.8429C32.5747 12.504 33.7878 12.9214 35.0475 13.0661C36.3072 13.2109 37.5833 13.0794 38.787 12.6809C39.9907 12.2825 41.0932 11.6265 42.0177 10.7588C45.163 14.5992 46.8798 19.411 46.8759 24.375C46.8754 25.135 46.835 25.8945 46.7549 26.6503Z" fill="#444557"/>
</svg>
