<svg width="60" height="60" viewBox="0 0 60 60" fill="none" xmlns="http://www.w3.org/2000/svg">
<path d="M53.6913 34.4722C52.8648 33.6536 51.8421 33.0608 50.721 32.7506C49.5998 32.4404 48.4179 32.4231 47.2882 32.7003C46.6104 32.8696 45.9004 32.8607 45.2271 32.6744C44.5539 32.4882 43.9402 32.131 43.4458 31.6375C42.9514 31.1441 42.593 30.5311 42.4055 29.8582C42.218 29.1852 42.2077 28.4753 42.3757 27.7972C42.6537 26.6661 42.6368 25.4825 42.3266 24.3597C42.0164 23.237 41.4232 22.2126 40.6038 21.3847C39.2575 20.0383 37.5648 19.0909 35.7132 18.6474C33.8615 18.2039 31.9233 18.2817 30.1132 18.8722C26.7875 19.9939 23.8031 21.9458 21.4424 24.5431C19.0818 27.1403 17.423 30.297 16.623 33.7144C15.823 37.1317 15.9083 40.6967 16.8709 44.0719C17.8335 47.4471 19.6414 50.5208 22.1236 53.0021C24.6058 55.4834 27.6802 57.2903 31.0557 58.2516C34.4312 59.213 37.9963 59.297 41.4133 58.4958C44.8304 57.6946 47.9865 56.0347 50.5829 53.6731C53.1793 51.3115 55.1301 48.3264 56.2507 45.0003C56.8363 43.1801 56.9072 41.2334 56.4555 39.3754C56.0038 37.5174 55.0472 35.8205 53.6913 34.4722ZM26.3257 31.4066C26.3257 30.7576 26.5181 30.1232 26.8786 29.5836C27.2392 29.044 27.7517 28.6234 28.3512 28.3751C28.9508 28.1267 29.6105 28.0618 30.247 28.1884C30.8835 28.315 31.4682 28.6275 31.9271 29.0864C32.386 29.5453 32.6985 30.1299 32.8251 30.7664C32.9517 31.4029 32.8867 32.0627 32.6384 32.6623C32.39 33.2618 31.9695 33.7743 31.4299 34.1348C30.8903 34.4954 30.2559 34.6878 29.6069 34.6878C28.7367 34.6878 27.9021 34.3421 27.2867 33.7268C26.6714 33.1114 26.3257 32.2768 26.3257 31.4066ZM32.8882 44.5316C32.2392 44.5316 31.6048 44.3391 31.0652 43.9786C30.5256 43.618 30.105 43.1056 29.8567 42.506C29.6083 41.9064 29.5433 41.2467 29.67 40.6102C29.7966 39.9737 30.1091 39.389 30.568 38.9301C31.0269 38.4712 31.6115 38.1587 32.248 38.0321C32.8845 37.9055 33.5443 37.9705 34.1438 38.2188C34.7434 38.4672 35.2559 38.8878 35.6164 39.4274C35.977 39.967 36.1694 40.6014 36.1694 41.2503C36.1694 42.1206 35.8237 42.9552 35.2083 43.5705C34.593 44.1859 33.7584 44.5316 32.8882 44.5316ZM43.6694 48.7503C43.0204 48.7503 42.386 48.5579 41.8464 48.1973C41.3068 47.8368 40.8863 47.3243 40.6379 46.7248C40.3896 46.1252 40.3246 45.4654 40.4512 44.8289C40.5778 44.1924 40.8903 43.6078 41.3492 43.1489C41.8081 42.69 42.3928 42.3775 43.0293 42.2509C43.6658 42.1243 44.3255 42.1892 44.9251 42.4376C45.5247 42.6859 46.0371 43.1065 46.3977 43.6461C46.7582 44.1857 46.9507 44.8201 46.9507 45.4691C46.9507 46.3393 46.605 47.1739 45.9896 47.7893C45.3742 48.4046 44.5396 48.7503 43.6694 48.7503Z" fill="#F7F7F7"/>
<path d="M33.2812 31.8751V9.3751C33.2812 8.62918 32.9849 7.91381 32.4575 7.38636C31.93 6.85891 31.2147 6.5626 30.4688 6.5626H20.9531L20.2969 2.64385C20.2169 2.16704 19.9706 1.73401 19.6015 1.42169C19.2325 1.10937 18.7647 0.937988 18.2812 0.937988C17.7978 0.937988 17.33 1.10937 16.961 1.42169C16.5919 1.73401 16.3456 2.16704 16.2656 2.64385L15.6094 6.5626H6.09375C5.34783 6.5626 4.63246 6.85891 4.10501 7.38636C3.57757 7.91381 3.28125 8.62918 3.28125 9.3751V31.8751C3.28125 32.621 3.57757 33.3364 4.10501 33.8638C4.63246 34.3913 5.34783 34.6876 6.09375 34.6876H7.74375L5.4375 45.4782C5.33426 45.9463 5.40964 46.436 5.64887 46.8514C5.8881 47.2667 6.27389 47.5777 6.73057 47.7233C7.18725 47.8689 7.68184 47.8385 8.11731 47.6382C8.55278 47.438 8.89769 47.0822 9.08437 46.6407L14.2125 34.6876H15.5344L16.3406 46.022C16.388 46.5038 16.613 46.9507 16.9717 47.2758C17.3303 47.6009 17.7971 47.781 18.2812 47.781C18.7654 47.781 19.2322 47.6009 19.5908 47.2758C19.9495 46.9507 20.1745 46.5038 20.2219 46.022L21.0281 34.6876H22.35L27.4781 46.6407C27.6648 47.0822 28.0097 47.438 28.4452 47.6382C28.8807 47.8385 29.3753 47.8689 29.8319 47.7233C30.2886 47.5777 30.6744 47.2667 30.9136 46.8514C31.1529 46.436 31.2282 45.9463 31.125 45.4782L28.8188 34.6876H30.4688C31.2147 34.6876 31.93 34.3913 32.4575 33.8638C32.9849 33.3364 33.2812 32.621 33.2812 31.8751ZM18.1125 2.95322C18.1244 2.91792 18.1471 2.88725 18.1774 2.86553C18.2077 2.84381 18.244 2.83212 18.2812 2.83212C18.3185 2.83212 18.3548 2.84381 18.3851 2.86553C18.4154 2.88725 18.4381 2.91792 18.45 2.95322L19.05 6.5626H17.5125L18.1125 2.95322ZM5.15625 31.8751V9.3751C5.15625 9.12646 5.25502 8.888 5.43084 8.71218C5.60665 8.53637 5.84511 8.4376 6.09375 8.4376H30.4688C30.7174 8.4376 30.9558 8.53637 31.1317 8.71218C31.3075 8.888 31.4062 9.12646 31.4062 9.3751V31.8751C31.4062 32.1237 31.3075 32.3622 31.1317 32.538C30.9558 32.7138 30.7174 32.8126 30.4688 32.8126H27.6562V30.0001C27.6562 29.7515 27.5575 29.513 27.3817 29.3372C27.2058 29.1614 26.9674 29.0626 26.7188 29.0626H9.84375C9.59511 29.0626 9.35665 29.1614 9.18084 29.3372C9.00502 29.513 8.90625 29.7515 8.90625 30.0001V32.8126H6.09375C5.84511 32.8126 5.60665 32.7138 5.43084 32.538C5.25502 32.3622 5.15625 32.1237 5.15625 31.8751ZM10.7812 32.8126V30.9376H25.7812V32.8126H10.7812ZM7.35938 45.9376H7.26562L9.66563 34.6876H12.1875L7.35938 45.9376ZM18.3 45.9376H18.2156L17.4094 34.6876H19.1438L18.3 45.9376ZM29.2969 45.872H29.1937L24.375 34.6876H26.8781L29.2969 45.872Z" fill="#444557"/>
</svg>
