<svg width="60" height="60" viewBox="0 0 60 60" fill="none" xmlns="http://www.w3.org/2000/svg">
<g clip-path="url(#clip0_172_0)">
<path d="M57.462 12.463L12.462 57.463C12.3309 57.5941 12.2417 57.7611 12.2055 57.9429C12.1693 58.1248 12.1879 58.3132 12.2589 58.4845C12.3298 58.6558 12.4499 58.8022 12.6041 58.9052C12.7582 59.0082 12.9394 59.0632 13.1248 59.0633H27.1873V56.2508C27.1873 56.0021 27.2861 55.7637 27.4619 55.5879C27.6377 55.412 27.8762 55.3133 28.1248 55.3133C28.3734 55.3133 28.6119 55.412 28.7877 55.5879C28.9635 55.7637 29.0623 56.0021 29.0623 56.2508V59.0633H34.6873V56.2508C34.6873 56.0021 34.7861 55.7637 34.9619 55.5879C35.1377 55.412 35.3762 55.3133 35.6248 55.3133C35.8734 55.3133 36.1119 55.412 36.2877 55.5879C36.4635 55.7637 36.5623 56.0021 36.5623 56.2508V59.0633H42.1873V56.2508C42.1873 56.0021 42.2861 55.7637 42.4619 55.5879C42.6377 55.412 42.8762 55.3133 43.1248 55.3133C43.3734 55.3133 43.6119 55.412 43.7877 55.5879C43.9635 55.7637 44.0623 56.0021 44.0623 56.2508V59.0633H49.6873V56.2508C49.6873 56.0021 49.7861 55.7637 49.9619 55.5879C50.1377 55.412 50.3762 55.3133 50.6248 55.3133C50.8734 55.3133 51.1119 55.412 51.2877 55.5879C51.4635 55.7637 51.5623 56.0021 51.5623 56.2508V59.0633H58.1248C58.3734 59.0633 58.6119 58.9645 58.7877 58.7887C58.9635 58.6129 59.0623 58.3744 59.0623 58.1258V13.1258C59.0623 12.9404 59.0073 12.7592 58.9042 12.605C58.8012 12.4509 58.6548 12.3308 58.4835 12.2598C58.3123 12.1889 58.1238 12.1703 57.942 12.2065C57.7601 12.2426 57.5931 12.3319 57.462 12.463ZM51.5623 50.6258C51.5623 50.8744 51.4635 51.1129 51.2877 51.2887C51.1119 51.4645 50.8734 51.5633 50.6248 51.5633H31.8748C31.6894 51.5632 31.5082 51.5082 31.3541 51.4052C31.1999 51.3022 31.0798 51.1558 31.0088 50.9845C30.9379 50.8132 30.9193 50.6248 30.9555 50.4429C30.9917 50.2611 31.0809 50.0941 31.212 49.963L49.962 31.213C50.0931 31.0819 50.2601 30.9926 50.442 30.9565C50.6238 30.9203 50.8123 30.9389 50.9835 31.0098C51.1548 31.0808 51.3012 31.2009 51.4042 31.355C51.5073 31.5092 51.5623 31.6904 51.5623 31.8758V50.6258Z" fill="#F7F7F7"/>
<path d="M12.4622 44.7253L16.2122 48.4753C16.388 48.6511 16.6264 48.7498 16.875 48.7498C17.1236 48.7498 17.362 48.6511 17.5378 48.4753L21.2878 44.7253C21.4636 44.5495 21.5624 44.3111 21.5625 44.0625H12.1875C12.1876 44.3111 12.2864 44.5495 12.4622 44.7253Z" fill="#F7F7F7"/>
<path d="M12.1875 18.75H21.5625V42.1875H12.1875V18.75Z" fill="#F7F7F7"/>
<path d="M16.875 12.1875C15.6323 12.189 14.4408 12.6833 13.5621 13.5621C12.6833 14.4408 12.189 15.6323 12.1875 16.875H21.5625C21.561 15.6323 21.0667 14.4408 20.1879 13.5621C19.3092 12.6833 18.1177 12.189 16.875 12.1875Z" fill="#F7F7F7"/>
<path d="M45 4.68783H10.2188C9.98743 3.54862 9.34106 2.536 8.40513 1.84656C7.4692 1.15711 6.31048 0.840023 5.15391 0.956848C3.99734 1.07367 2.92544 1.61608 2.14629 2.47876C1.36714 3.34145 0.936334 4.46287 0.937502 5.62533V43.1253C0.938991 44.3681 1.43333 45.5595 2.31208 46.4382C3.19084 47.317 4.38226 47.8113 5.625 47.8128H41.25C41.9959 47.8128 42.7113 47.5165 43.2387 46.9891C43.7662 46.4616 44.0625 45.7463 44.0625 45.0003V44.0628H45C45.7459 44.0628 46.4613 43.7665 46.9887 43.2391C47.5162 42.7116 47.8125 41.9963 47.8125 41.2503V7.50033C47.8125 6.75441 47.5162 6.03904 46.9887 5.51159C46.4613 4.98414 45.7459 4.68783 45 4.68783ZM2.8125 5.62533C2.8125 4.87941 3.10882 4.16404 3.63626 3.63659C4.16371 3.10914 4.87908 2.81283 5.625 2.81283C6.37092 2.81283 7.08629 3.10914 7.61374 3.63659C8.14119 4.16404 8.4375 4.87941 8.4375 5.62533V39.3753C7.62661 38.7656 6.63954 38.436 5.625 38.436C4.61046 38.436 3.6234 38.7656 2.8125 39.3753V5.62533ZM42.1875 45.0003C42.1875 45.249 42.0887 45.4874 41.9129 45.6632C41.7371 45.8391 41.4986 45.9378 41.25 45.9378H5.625C5.06874 45.9378 4.52497 45.7729 4.06246 45.4638C3.59995 45.1548 3.23946 44.7155 3.02659 44.2016C2.81372 43.6877 2.75802 43.1222 2.86654 42.5766C2.97506 42.0311 3.24293 41.5299 3.63626 41.1366C4.0296 40.7433 4.53074 40.4754 5.07631 40.3669C5.62188 40.2584 6.18738 40.314 6.7013 40.5269C7.21522 40.7398 7.65447 41.1003 7.96351 41.5628C8.27255 42.0253 8.4375 42.5691 8.4375 43.1253C8.4375 43.374 8.53627 43.6124 8.71209 43.7882C8.88791 43.9641 9.12636 44.0628 9.375 44.0628H42.1875V45.0003ZM45.9375 41.2503C45.9375 41.499 45.8387 41.7374 45.6629 41.9132C45.4871 42.0891 45.2486 42.1878 45 42.1878H10.3125V6.56283H45C45.2486 6.56283 45.4871 6.6616 45.6629 6.83742C45.8387 7.01323 45.9375 7.25169 45.9375 7.50033V41.2503Z" fill="#444557"/>
<path d="M43.125 25.3125H36.5625V18.75C36.5625 18.0041 36.2662 17.2887 35.7387 16.7613C35.2113 16.2338 34.4959 15.9375 33.75 15.9375H27.1875V9.375C27.1875 9.12636 27.0887 8.8879 26.9129 8.71209C26.7371 8.53627 26.4986 8.4375 26.25 8.4375H13.125C12.8764 8.4375 12.6379 8.53627 12.4621 8.71209C12.2863 8.8879 12.1875 9.12636 12.1875 9.375V22.5C12.1875 22.7486 12.2863 22.9871 12.4621 23.1629C12.6379 23.3387 12.8764 23.4375 13.125 23.4375H19.6875V30C19.6875 30.7459 19.9838 31.4613 20.5113 31.9887C21.0387 32.5162 21.7541 32.8125 22.5 32.8125H29.0625V39.375C29.0625 39.6236 29.1613 39.8621 29.3371 40.0379C29.5129 40.2137 29.7514 40.3125 30 40.3125H43.125C43.3736 40.3125 43.6121 40.2137 43.7879 40.0379C43.9637 39.8621 44.0625 39.6236 44.0625 39.375V26.25C44.0625 26.0014 43.9637 25.7629 43.7879 25.5871C43.6121 25.4113 43.3736 25.3125 43.125 25.3125ZM19.6875 18.75V21.5625H14.0625V10.3125H25.3125V15.9375H22.5C21.7541 15.9375 21.0387 16.2338 20.5113 16.7613C19.9838 17.2887 19.6875 18.0041 19.6875 18.75ZM25.3125 17.8125V21.5625H21.5625V18.75C21.5625 18.5014 21.6613 18.2629 21.8371 18.0871C22.0129 17.9113 22.2514 17.8125 22.5 17.8125H25.3125ZM29.0625 26.25V30.9375H22.5C22.2514 30.9375 22.0129 30.8387 21.8371 30.6629C21.6613 30.4871 21.5625 30.2486 21.5625 30V23.4375H26.25C26.4986 23.4375 26.7371 23.3387 26.9129 23.1629C27.0887 22.9871 27.1875 22.7486 27.1875 22.5V17.8125H33.75C33.9986 17.8125 34.2371 17.9113 34.4129 18.0871C34.5887 18.2629 34.6875 18.5014 34.6875 18.75V25.3125H30C29.7514 25.3125 29.5129 25.4113 29.3371 25.5871C29.1613 25.7629 29.0625 26.0014 29.0625 26.25ZM34.6875 27.1875V30C34.6875 30.2486 34.5887 30.4871 34.4129 30.6629C34.2371 30.8387 33.9986 30.9375 33.75 30.9375H30.9375V27.1875H34.6875ZM42.1875 38.4375H30.9375V32.8125H33.75C34.4959 32.8125 35.2113 32.5162 35.7387 31.9887C36.2662 31.4613 36.5625 30.7459 36.5625 30V27.1875H42.1875V38.4375Z" fill="#444557"/>
</g>
<defs>
<clipPath id="clip0_172_0">
<rect width="60" height="60" fill="white"/>
</clipPath>
</defs>
</svg>
