<svg width="60" height="60" viewBox="0 0 60 60" fill="none" xmlns="http://www.w3.org/2000/svg">
<g clip-path="url(#clip0_169_0)">
<path d="M49.0309 15.0365C43.1865 11.5753 36.0118 11.2209 31.584 14.1731C24.3446 18.9984 25.6843 25.4596 27.1027 32.2996C27.9234 35.692 28.3872 39.1608 28.4865 42.6496C28.386 44.7592 27.9899 46.8442 27.3099 48.8437C25.749 54.209 25.6759 57.5081 31.9205 58.7568C37.5643 59.8874 43.5455 57.7659 48.2331 54.2568C54.2865 49.7184 58.3937 42.9065 58.9515 36.4818C59.7662 27.0684 56.1559 19.2543 49.0309 15.0365ZM37.4996 21.5625C37.4996 20.8208 37.7195 20.0957 38.1316 19.4791C38.5437 18.8624 39.1293 18.3817 39.8145 18.0979C40.4998 17.8141 41.2538 17.7398 41.9812 17.8845C42.7086 18.0292 43.3768 18.3864 43.9013 18.9108C44.4257 19.4353 44.7829 20.1034 44.9276 20.8309C45.0723 21.5583 44.998 22.3123 44.7142 22.9975C44.4303 23.6827 43.9497 24.2684 43.333 24.6805C42.7163 25.0925 41.9913 25.3125 41.2496 25.3125C40.255 25.3125 39.3012 24.9174 38.598 24.2141C37.8947 23.5108 37.4996 22.557 37.4996 21.5625ZM43.1246 48.7499C42.3829 48.7499 41.6579 48.53 41.0412 48.118C40.4245 47.7059 39.9439 47.1202 39.6601 46.435C39.3762 45.7498 39.302 44.9958 39.4467 44.2684C39.5914 43.5409 39.9485 42.8727 40.473 42.3483C40.9974 41.8239 41.6656 41.4667 42.393 41.322C43.1205 41.1773 43.8745 41.2516 44.5597 41.5354C45.2449 41.8192 45.8306 42.2999 46.2426 42.9166C46.6547 43.5332 46.8746 44.2583 46.8746 44.9999C46.8746 45.9945 46.4795 46.9483 45.7763 47.6516C45.073 48.3549 44.1192 48.7499 43.1246 48.7499ZM49.6871 35.625C48.9454 35.625 48.2204 35.405 47.6037 34.993C46.987 34.5809 46.5064 33.9952 46.2226 33.31C45.9387 32.6248 45.8645 31.8708 46.0092 31.1434C46.1539 30.4159 46.511 29.7477 47.0355 29.2233C47.5599 28.6989 48.2281 28.3417 48.9555 28.197C49.683 28.0523 50.437 28.1266 51.1222 28.4104C51.8074 28.6942 52.3931 29.1749 52.8051 29.7916C53.2172 30.4082 53.4371 31.1333 53.4371 31.875C53.4371 32.8695 53.042 33.8233 52.3388 34.5266C51.6355 35.2299 50.6817 35.625 49.6871 35.625Z" fill="#F7F7F7"/>
<path d="M38.5641 14.0091C38.5326 13.4316 38.3295 12.8767 37.9809 12.4153C38.5604 12.0313 39.036 11.5099 39.3654 10.8977C39.6948 10.2856 39.8678 9.60144 39.8691 8.90624C39.8691 6.34031 36.7753 1.84218 36.4191 1.33781C36.3283 1.22046 36.2119 1.12546 36.0787 1.0601C35.9455 0.994738 35.7991 0.960754 35.6508 0.960754C35.5024 0.960754 35.356 0.994738 35.2229 1.0601C35.0897 1.12546 34.9733 1.22046 34.8825 1.33781C34.5291 1.84218 31.4316 6.34031 31.4316 8.90624C31.4324 9.602 31.6054 10.2867 31.935 10.8995C32.2646 11.5122 32.7406 12.0339 33.3206 12.4181C32.972 12.8795 32.769 13.4344 32.7375 14.0119L31.1663 43.08C31.1345 43.6886 31.227 44.2972 31.438 44.869C31.6491 45.4407 31.9742 45.9634 32.3938 46.4054C32.8133 46.8474 33.3185 47.1994 33.8784 47.4399C34.4383 47.6804 35.0414 47.8045 35.6508 47.8045C36.2602 47.8045 36.8632 47.6804 37.4232 47.4399C37.9831 47.1994 38.4882 46.8474 38.9078 46.4054C39.3273 45.9634 39.6525 45.4407 39.8635 44.869C40.0746 44.2972 40.167 43.6886 40.1353 43.08L38.5641 14.0091ZM35.6503 3.57656C36.7603 5.34937 37.9941 7.70812 37.9941 8.90624C37.9941 9.52784 37.7471 10.124 37.3076 10.5635C36.8681 11.0031 36.2719 11.25 35.6503 11.25C35.0287 11.25 34.4326 11.0031 33.993 10.5635C33.5535 10.124 33.3066 9.52784 33.3066 8.90624C33.3066 7.70812 34.5412 5.34937 35.6503 3.57656ZM36.6909 14.1103L36.7847 15.9375H34.5122L34.6106 14.1103C34.6245 13.8438 34.7401 13.5928 34.9337 13.409C35.1272 13.2253 35.3839 13.1228 35.6508 13.1228C35.9177 13.1228 36.1743 13.2253 36.3679 13.409C36.5614 13.5928 36.6771 13.8438 36.6909 14.1103ZM33.0347 43.1803L34.4072 17.8125H36.8869L38.2584 43.1803C38.4572 46.7728 32.8425 46.8019 33.0394 43.1803H33.0347Z" fill="#444557"/>
<path d="M6.49312 1.49471C6.41864 1.32971 6.29798 1.1898 6.14571 1.09189C5.99345 0.993979 5.81609 0.942245 5.63506 0.942939C5.45403 0.943633 5.27707 0.996725 5.12556 1.0958C4.97405 1.19488 4.85447 1.3357 4.78125 1.50127L1.04344 9.93877C0.991005 10.0569 0.963556 10.1845 0.962812 10.3138C0.961875 13.1938 0.9375 40.2303 0.9375 43.1141C0.9375 44.3605 1.43264 45.5559 2.31401 46.4373C3.19537 47.3186 4.39075 47.8138 5.63719 47.8138C6.88362 47.8138 8.07901 47.3186 8.96037 46.4373C9.84173 45.5559 10.3369 44.3605 10.3369 43.1141V10.3138C10.3372 10.1822 10.3094 10.0521 10.2553 9.93221L6.49312 1.49471ZM2.83687 12.6228C4.66492 13.2163 6.63383 13.2163 8.46187 12.6228V34.6888H2.83687V12.6228ZM2.83687 38.3591V36.5638H8.46187V38.3591H2.83687ZM2.83687 10.5153L5.64 4.18721L8.46187 10.5163V10.6494C6.65817 11.3806 4.64058 11.3806 2.83687 10.6494V10.5153ZM5.63719 45.9388C4.88834 45.9378 4.17044 45.6399 3.64093 45.1103C3.11141 44.5808 2.81349 43.8629 2.8125 43.1141V40.3138H8.46187V43.1141C8.46113 43.863 8.16329 44.581 7.63372 45.1106C7.10415 45.6402 6.38611 45.938 5.63719 45.9388Z" fill="#444557"/>
<path d="M21.489 1.45593C21.4111 1.30017 21.2914 1.16917 21.1433 1.07762C20.9952 0.986058 20.8245 0.937561 20.6504 0.937561C20.4762 0.937561 20.3055 0.986058 20.1574 1.07762C20.0093 1.16917 19.8896 1.30017 19.8118 1.45593L16.0618 8.95593C15.9967 9.08606 15.9629 9.22953 15.9629 9.375C15.9629 9.52046 15.9967 9.66393 16.0618 9.79406L17.8636 13.3969C17.2186 14.0781 16.8477 14.9734 16.8221 15.9112L16.0721 43.0987C16.0569 43.7101 16.1643 44.3184 16.3878 44.8877C16.6113 45.457 16.9464 45.9758 17.3735 46.4135C17.8006 46.8513 18.3109 47.1992 18.8745 47.4368C19.4381 47.6743 20.0435 47.7967 20.655 47.7967C21.2666 47.7967 21.872 47.6743 22.4356 47.4368C22.9992 47.1992 23.5095 46.8513 23.9366 46.4135C24.3637 45.9758 24.6988 45.457 24.9223 44.8877C25.1458 44.3184 25.2532 43.7101 25.238 43.0987L24.4824 15.9112C24.4561 14.973 24.0842 14.0776 23.438 13.3969L25.2399 9.79406C25.3049 9.66393 25.3388 9.52046 25.3388 9.375C25.3388 9.22953 25.3049 9.08606 25.2399 8.95593L21.489 1.45593ZM19.7124 5.84625V7.5C19.7124 7.74864 19.8112 7.98709 19.987 8.16291C20.1628 8.33873 20.4013 8.4375 20.6499 8.4375C20.8985 8.4375 21.137 8.33873 21.3128 8.16291C21.4886 7.98709 21.5874 7.74864 21.5874 7.5V5.84625L23.3518 9.375L21.9455 12.1875H19.3552L17.949 9.375L19.7124 5.84625ZM18.6961 15.9619C18.7119 15.4542 18.9246 14.9726 19.2893 14.619C19.654 14.2654 20.142 14.0677 20.6499 14.0677C21.1578 14.0677 21.6458 14.2654 22.0105 14.619C22.3752 14.9726 22.5879 15.4542 22.6036 15.9619L23.0199 30.9375H18.2818L18.6961 15.9619ZM17.9461 43.1494L18.2283 32.8125H23.0724L23.3593 43.1522C23.4596 46.8103 17.8421 46.7906 17.9415 43.1522L17.9461 43.1494Z" fill="#444557"/>
</g>
<defs>
<clipPath id="clip0_169_0">
<rect width="60" height="60" fill="white"/>
</clipPath>
</defs>
</svg>
