<svg width="60" height="60" viewBox="0 0 60 60" fill="none" xmlns="http://www.w3.org/2000/svg">
<g clip-path="url(#clip0_179_17)">
<path d="M40.4234 6.13446C40.6614 5.99765 40.9449 5.96371 41.2084 6.04046L54.1574 9.84946C55.1862 10.1505 56.2973 9.87976 57.0724 9.13934C57.8474 8.39892 58.1686 7.30126 57.9149 6.25984C57.6612 5.21842 56.8712 4.39146 55.8424 4.09046L42.9004 0.280462C41.0549 -0.262546 39.0671 -0.0212653 37.4051 0.947509C35.743 1.91628 34.5535 3.52698 34.1164 5.40046L31.6224 16.0005H25.9494C25.4239 9.65133 20.0285 4.81955 13.66 4.99491C7.29158 5.17027 2.17022 10.2916 1.99486 16.6601C1.8195 23.0285 6.65128 28.4239 13.0004 28.9495V53.0005C13.0048 56.8646 16.1362 59.9961 20.0004 60.0005H38.0004C41.8646 59.9961 44.996 56.8646 45.0004 53.0005V18.0005C45.0004 16.8959 44.105 16.0005 43.0004 16.0005H37.7834L39.9524 6.77446C40.0134 6.50482 40.1841 6.27285 40.4234 6.13446ZM4.00041 17.0005C4.00501 11.6755 8.18152 7.28822 13.4998 7.02163C18.818 6.75504 23.4123 10.7027 23.9494 16.0005H15.0004C13.8958 16.0005 13.0004 16.8959 13.0004 18.0005V26.9495C7.8938 26.4302 4.00689 22.1334 4.00041 17.0005ZM43.0004 18.0005V53.0005C42.9971 55.7605 40.7605 57.9972 38.0004 58.0005H20.0004C17.2404 57.9972 15.0037 55.7605 15.0004 53.0005V18.0005H31.1524L27.8584 32.0005H18.0004C17.4481 32.0005 17.0004 32.4482 17.0004 33.0005V53.0005C17.0004 54.6573 18.3436 56.0005 20.0004 56.0005H38.0004C39.6573 56.0005 41.0004 54.6573 41.0004 53.0005V33.0005C41.0004 32.4482 40.5527 32.0005 40.0004 32.0005H34.0224L37.3134 18.0005H43.0004ZM39.0004 34.0005V53.0005C39.0004 53.5528 38.5527 54.0005 38.0004 54.0005H20.0004C19.4481 54.0005 19.0004 53.5528 19.0004 53.0005V34.0005H39.0004ZM29.9134 32.0005L33.2074 18.0005H35.2584L31.9674 32.0005H29.9134ZM38.0064 6.31146L35.7294 16.0005H33.6774L36.0644 5.85546C36.376 4.51709 37.2257 3.36642 38.4131 2.6747C39.6004 1.98297 41.0205 1.81142 42.3384 2.20046L55.2794 6.01046C55.5364 6.08387 55.7528 6.25807 55.8794 6.49346C56.0086 6.72732 56.0389 7.00316 55.9634 7.25946C55.8901 7.51165 55.7186 7.72384 55.4874 7.84846C55.2545 7.97624 54.9804 8.0061 54.7254 7.93146L41.7624 4.11846C40.9728 3.88935 40.1238 3.99434 39.4138 4.40889C38.7038 4.82344 38.195 5.51122 38.0064 6.31146Z" fill="#444557"/>
<path d="M24 52.0005C24.5523 52.0005 25 51.5528 25 51.0005C25 50.4482 24.5523 50.0005 24 50.0005C23.4477 50.0005 23 50.4482 23 51.0005C23 51.5528 23.4477 52.0005 24 52.0005Z" fill="#444557"/>
<path d="M34 46.0005C32.3431 46.0005 31 47.3436 31 49.0005C31 50.6573 32.3431 52.0005 34 52.0005C35.6568 52.0005 37 50.6573 37 49.0005C37 47.3436 35.6568 46.0005 34 46.0005ZM34 50.0005C33.4477 50.0005 33 49.5528 33 49.0005C33 48.4482 33.4477 48.0005 34 48.0005C34.5523 48.0005 35 48.4482 35 49.0005C35 49.5528 34.5523 50.0005 34 50.0005Z" fill="#444557"/>
<path d="M28 48.0005C28.5523 48.0005 29 47.5528 29 47.0005C29 46.4482 28.5523 46.0005 28 46.0005C27.4477 46.0005 27 46.4482 27 47.0005C27 47.5528 27.4477 48.0005 28 48.0005Z" fill="#444557"/>
<path d="M22 46.0005C22.5523 46.0005 23 45.5528 23 45.0005C23 44.4482 22.5523 44.0005 22 44.0005C21.4477 44.0005 21 44.4482 21 45.0005C21 45.5528 21.4477 46.0005 22 46.0005Z" fill="#444557"/>
<path d="M36 44.0005C36.5523 44.0005 37 43.5528 37 43.0005C37 42.4482 36.5523 42.0005 36 42.0005C35.4477 42.0005 35 42.4482 35 43.0005C35 43.5528 35.4477 44.0005 36 44.0005Z" fill="#444557"/>
<path d="M31 43.0005C31.5523 43.0005 32 42.5528 32 42.0005C32 41.4482 31.5523 41.0005 31 41.0005C30.4477 41.0005 30 41.4482 30 42.0005C30 42.5528 30.4477 43.0005 31 43.0005Z" fill="#444557"/>
<path d="M34 38.0005C34.5523 38.0005 35 37.5528 35 37.0005C35 36.4482 34.5523 36.0005 34 36.0005C33.4477 36.0005 33 36.4482 33 37.0005C33 37.5528 33.4477 38.0005 34 38.0005Z" fill="#444557"/>
<path d="M25 42.0005C26.6569 42.0005 28 40.6573 28 39.0005C28 37.3436 26.6569 36.0005 25 36.0005C23.3431 36.0005 22 37.3436 22 39.0005C22 40.6573 23.3431 42.0005 25 42.0005ZM25 38.0005C25.5523 38.0005 26 38.4482 26 39.0005C26 39.5528 25.5523 40.0005 25 40.0005C24.4477 40.0005 24 39.5528 24 39.0005C24 38.4482 24.4477 38.0005 25 38.0005Z" fill="#444557"/>
<path d="M9.75759 19.8295L8.29359 21.2935C8.03364 21.5446 7.92938 21.9164 8.0209 22.266C8.11241 22.6157 8.38546 22.8887 8.73509 22.9802C9.08472 23.0718 9.45652 22.9675 9.70759 22.7075L11.1716 21.2435C11.5506 20.8512 11.5451 20.2275 11.1594 19.8417C10.7737 19.456 10.15 19.4506 9.75759 19.8295Z" fill="#444557"/>
<path d="M10 17.0005C10 16.4482 9.55229 16.0005 9 16.0005H7C6.44772 16.0005 6 16.4482 6 17.0005C6 17.5528 6.44772 18.0005 7 18.0005H9C9.55229 18.0005 10 17.5528 10 17.0005Z" fill="#444557"/>
<path d="M17.5369 14.4644C17.8021 14.4644 18.0564 14.359 18.2439 14.1714L19.7079 12.7074C20.0869 12.315 20.0815 11.6913 19.6957 11.3056C19.31 10.9199 18.6863 10.9144 18.2939 11.2934L16.8299 12.7574C16.544 13.0434 16.4585 13.4734 16.6132 13.8471C16.768 14.2207 17.1325 14.4643 17.5369 14.4644Z" fill="#444557"/>
<path d="M9.70643 11.2934C9.31405 10.9144 8.69035 10.9199 8.30461 11.3056C7.91888 11.6913 7.91346 12.315 8.29243 12.7074L9.75643 14.1714C10.1488 14.5504 10.7725 14.545 11.1582 14.1592C11.544 13.7735 11.5494 13.1498 11.1704 12.7574L9.70643 11.2934Z" fill="#444557"/>
<path d="M14 13.0005C14.5523 13.0005 15 12.5528 15 12.0005V10.0005C15 9.4482 14.5523 9.00049 14 9.00049C13.4477 9.00049 13 9.4482 13 10.0005V12.0005C13 12.5528 13.4477 13.0005 14 13.0005Z" fill="#444557"/>
</g>
<defs>
<clipPath id="clip0_179_17">
<rect width="60" height="60" fill="white" transform="translate(0 0.000488281)"/>
</clipPath>
</defs>
</svg>
