<svg width="60" height="60" viewBox="0 0 60 60" fill="none" xmlns="http://www.w3.org/2000/svg">
<g clip-path="url(#clip0_170_0)">
<path d="M48.8531 48.0863C52.4803 43.1437 57.1875 35.3438 57.1875 28.125C57.1875 24.644 55.8047 21.3056 53.3433 18.8442C50.8819 16.3828 47.5435 15 44.0625 15C40.5815 15 37.2431 16.3828 34.7817 18.8442C32.3203 21.3056 30.9375 24.644 30.9375 28.125C30.9375 35.3438 35.6475 43.1475 39.2747 48.0938C34.2394 48.6891 29.0625 50.3578 29.0625 53.4375C29.0625 57.1303 36.6084 59.0625 44.0625 59.0625C51.5166 59.0625 59.0625 57.1303 59.0625 53.4375C59.0625 50.3662 53.9541 48.6862 48.8531 48.0863ZM44.0625 23.4375C44.9896 23.4375 45.8959 23.7124 46.6667 24.2275C47.4376 24.7426 48.0384 25.4746 48.3932 26.3312C48.748 27.1877 48.8408 28.1302 48.6599 29.0395C48.4791 29.9488 48.0326 30.784 47.3771 31.4396C46.7215 32.0951 45.8863 32.5416 44.977 32.7224C44.0677 32.9033 43.1252 32.8105 42.2687 32.4557C41.4121 32.1009 40.6801 31.5001 40.165 30.7292C39.6499 29.9584 39.375 29.0521 39.375 28.125C39.3765 26.8823 39.8708 25.6908 40.7496 24.8121C41.6283 23.9333 42.8198 23.439 44.0625 23.4375ZM44.0625 57.1875C36.0506 57.1875 30.9375 54.9666 30.9375 53.4375C30.9375 52.2534 34.2975 50.3831 40.6022 49.8384C42.1097 51.7612 43.2272 52.9791 43.3763 53.1384C43.464 53.2327 43.5702 53.3079 43.6883 53.3593C43.8063 53.4107 43.9337 53.4372 44.0625 53.4372C44.1913 53.4372 44.3187 53.4107 44.4367 53.3593C44.5548 53.3079 44.661 53.2327 44.7487 53.1384C44.8969 52.9791 46.0172 51.7594 47.5256 49.8347L47.7263 49.8516C54.1809 50.4459 57.1875 52.3425 57.1875 53.4375C57.1875 54.9666 52.0744 57.1875 44.0625 57.1875Z" fill="#F7F7F7"/>
<path d="M43.1003 16.875L37.2878 17.0372L24.159 1.275C24.071 1.16929 23.9607 1.08426 23.8362 1.02593C23.7116 0.967606 23.5757 0.937414 23.4381 0.9375H18.7506C18.5908 0.937426 18.4336 0.97821 18.294 1.05598C18.1543 1.13375 18.0369 1.24592 17.9528 1.38185C17.8688 1.51777 17.8208 1.67293 17.8136 1.83258C17.8064 1.99224 17.8401 2.1511 17.9115 2.29406L25.4481 17.3653L9.75059 17.8013L5.34434 13.3997C5.17017 13.2255 4.93443 13.1268 4.68809 13.125H1.87559C1.72406 13.1249 1.57478 13.1615 1.44051 13.2318C1.30624 13.302 1.191 13.4037 1.10465 13.5282C1.01829 13.6527 0.963406 13.7963 0.944684 13.9467C0.925962 14.097 0.943964 14.2497 0.997148 14.3916L3.68684 21.5625L0.997148 28.7334C0.943964 28.8753 0.925962 29.028 0.944684 29.1783C0.963406 29.3287 1.01829 29.4723 1.10465 29.5968C1.191 29.7213 1.30624 29.823 1.44051 29.8932C1.57478 29.9635 1.72406 30.0001 1.87559 30H4.68809C4.93671 29.9999 5.17512 29.9011 5.3509 29.7253L9.75715 25.3237L25.4518 25.7597L17.9115 40.8309C17.8401 40.9739 17.8064 41.1328 17.8136 41.2924C17.8208 41.4521 17.8688 41.6072 17.9528 41.7432C18.0369 41.8791 18.1543 41.9913 18.294 42.069C18.4336 42.1468 18.5908 42.1876 18.7506 42.1875H23.4381C23.5757 42.1876 23.7116 42.1574 23.8362 42.0991C23.9607 42.0407 24.071 41.9557 24.159 41.85L37.2896 26.0878L43.1256 26.25C44.3688 26.2466 45.5597 25.7496 46.4364 24.8681C47.3131 23.9867 47.8038 22.793 47.8004 21.5498C47.7971 20.3066 47.3 19.1157 46.4185 18.239C45.5371 17.3623 44.3435 16.8716 43.1003 16.875ZM20.2675 2.8125H22.9993L34.9056 17.1028L27.5162 17.3081L20.2675 2.8125ZM22.9993 40.3125H20.2675L27.5153 25.8169L34.9046 26.0222L22.9993 40.3125ZM43.1556 24.375L9.40559 23.4375C9.27777 23.4314 9.15013 23.4527 9.03127 23.5001C8.9124 23.5475 8.80508 23.6198 8.71652 23.7122L4.29996 28.125H3.2284L5.56652 21.8916C5.64483 21.6798 5.64483 21.4471 5.56652 21.2353L3.2284 15H4.29996L8.71277 19.4128C8.8026 19.5035 8.91015 19.5747 9.0287 19.6219C9.14725 19.6692 9.27427 19.6915 9.40184 19.6875L43.1256 18.75C43.4949 18.7483 43.861 18.8193 44.2029 18.9591C44.5448 19.0988 44.8558 19.3045 45.1182 19.5645C45.3806 19.8244 45.5892 20.1335 45.7321 20.4741C45.875 20.8146 45.9495 21.18 45.9512 21.5494C45.9529 21.9187 45.8819 22.2848 45.7421 22.6267C45.6024 22.9686 45.3967 23.2796 45.1367 23.542C44.8768 23.8043 44.5677 24.013 44.2271 24.1559C43.8866 24.2988 43.5212 24.3733 43.1518 24.375H43.1556Z" fill="#444557"/>
<path d="M15.9375 37.5H8.4375C8.18886 37.5 7.9504 37.5988 7.77459 37.7746C7.59877 37.9504 7.5 38.1889 7.5 38.4375C7.5 38.6861 7.59877 38.9246 7.77459 39.1004C7.9504 39.2762 8.18886 39.375 8.4375 39.375H15.9375C16.1861 39.375 16.4246 39.2762 16.6004 39.1004C16.7762 38.9246 16.875 38.6861 16.875 38.4375C16.875 38.1889 16.7762 37.9504 16.6004 37.7746C16.4246 37.5988 16.1861 37.5 15.9375 37.5Z" fill="#444557"/>
<path d="M18.75 33.75C18.75 33.5014 18.6512 33.2629 18.4754 33.0871C18.2996 32.9113 18.0611 32.8125 17.8125 32.8125H10.3125C10.0639 32.8125 9.8254 32.9113 9.64959 33.0871C9.47377 33.2629 9.375 33.5014 9.375 33.75C9.375 33.9986 9.47377 34.2371 9.64959 34.4129C9.8254 34.5887 10.0639 34.6875 10.3125 34.6875H17.8125C18.0611 34.6875 18.2996 34.5887 18.4754 34.4129C18.6512 34.2371 18.75 33.9986 18.75 33.75Z" fill="#444557"/>
<path d="M9.375 9.375C9.375 9.62364 9.47377 9.8621 9.64959 10.0379C9.8254 10.2137 10.0639 10.3125 10.3125 10.3125H17.8125C18.0611 10.3125 18.2996 10.2137 18.4754 10.0379C18.6512 9.8621 18.75 9.62364 18.75 9.375C18.75 9.12636 18.6512 8.8879 18.4754 8.71209C18.2996 8.53627 18.0611 8.4375 17.8125 8.4375H10.3125C10.0639 8.4375 9.8254 8.53627 9.64959 8.71209C9.47377 8.8879 9.375 9.12636 9.375 9.375Z" fill="#444557"/>
<path d="M8.4375 5.625H15.9375C16.1861 5.625 16.4246 5.52623 16.6004 5.35041C16.7762 5.1746 16.875 4.93614 16.875 4.6875C16.875 4.43886 16.7762 4.2004 16.6004 4.02459C16.4246 3.84877 16.1861 3.75 15.9375 3.75H8.4375C8.18886 3.75 7.9504 3.84877 7.77459 4.02459C7.59877 4.2004 7.5 4.43886 7.5 4.6875C7.5 4.93614 7.59877 5.1746 7.77459 5.35041C7.9504 5.52623 8.18886 5.625 8.4375 5.625Z" fill="#444557"/>
</g>
<defs>
<clipPath id="clip0_170_0">
<rect width="60" height="60" fill="white"/>
</clipPath>
</defs>
</svg>
