<!-- icon666.com - MILLIONS vector ICONS FREE --><svg id="Layer_1" viewBox="0 0 512 512" xmlns="http://www.w3.org/2000/svg" data-name="Layer 1"><path d="m16 229h197a16 16 0 0 0 16-16v-197a16 16 0 0 0 -16-16h-197a16 16 0 0 0 -16 16v197a16 16 0 0 0 16 16zm16-197h165v165h-165zm464 251h-197a16 16 0 0 0 -16 16v197a16 16 0 0 0 16 16h197a16 16 0 0 0 16-16v-197a16 16 0 0 0 -16-16zm-16 197h-165v-165h165zm-464 32h197a16 16 0 0 0 16-16v-197a16 16 0 0 0 -16-16h-197a16 16 0 0 0 -16 16v197a16 16 0 0 0 16 16zm16-197h165v165h-165zm365.5-315a114.5 114.5 0 1 0 114.5 114.5 114.629 114.629 0 0 0 -114.5-114.5zm0 197a82.5 82.5 0 1 1 82.5-82.5 82.593 82.593 0 0 1 -82.5 82.5z"></path></svg>