<!-- icon666.com - MILLIONS vector ICONS FREE --><svg id="Layer_2" enable-background="new 0 0 32 32" viewBox="0 0 32 32" xmlns="http://www.w3.org/2000/svg"><path d="m29 31.981h-8.334c-1.654 0-3-1.346-3-3v-8.334c0-1.654 1.346-3 3-3h8.334c1.654 0 3 1.346 3 3v8.334c0 1.655-1.346 3-3 3zm-8.334-12.334c-.552 0-1 .448-1 1v8.334c0 .552.448 1 1 1h8.334c.552 0 1-.448 1-1v-8.334c0-.552-.448-1-1-1zm-18.357 10.995c-.257 0-.513-.098-.708-.294-.39-.391-.39-1.024.002-1.414l2.161-2.156c-.821-1.11-1.264-2.448-1.264-3.854 0-1.737.677-3.37 1.905-4.598s2.859-1.904 4.597-1.904 3.37.677 4.598 1.904c1.229 1.228 1.905 2.86 1.905 4.598s-.677 3.37-1.905 4.598c-1.228 1.229-2.86 1.904-4.598 1.904-1.392 0-2.717-.435-3.819-1.238l-2.168 2.162c-.196.194-.451.292-.706.292zm6.693-12.22c-1.202 0-2.333.468-3.183 1.318-.85.851-1.319 1.982-1.319 3.184s.469 2.333 1.319 3.184 1.98 1.318 3.183 1.318 2.333-.468 3.184-1.318c.851-.851 1.319-1.981 1.319-3.184s-.469-2.333-1.319-3.184-1.981-1.318-3.184-1.318zm19.998-4.044h-8.334c-1.654 0-3-1.346-3-3v-8.334c0-1.654 1.346-3 3-3h8.334c1.654 0 3 1.346 3 3v8.334c0 1.654-1.346 3-3 3zm-8.334-12.334c-.552 0-1 .448-1 1v8.334c0 .552.448 1 1 1h8.334c.552 0 1-.448 1-1v-8.334c0-.552-.448-1-1-1zm-9.332 12.334h-8.334c-1.654 0-3-1.346-3-3v-8.334c0-1.654 1.346-3 3-3h8.334c1.654 0 3 1.346 3 3v8.334c0 1.654-1.346 3-3 3zm-8.334-12.334c-.552 0-1 .448-1 1v8.334c0 .552.448 1 1 1h8.334c.552 0 1-.448 1-1v-8.334c0-.552-.448-1-1-1z"/></svg>