<svg width="60" height="60" viewBox="0 0 60 60" fill="none" xmlns="http://www.w3.org/2000/svg">
<path d="M3 42.0005H4C4 43.1051 4.89543 44.0005 6 44.0005H14V46.0005C14.0032 46.9152 14.6267 47.7112 15.514 47.9335L8.08 54.8005C7.17564 55.6389 6.87649 56.9454 7.32592 58.0938C7.77534 59.2422 8.88178 59.9986 10.115 60.0005H10.215C10.97 60.0001 11.6969 59.7144 12.25 59.2005L19 52.9755V57.0005C19 58.6573 20.3431 60.0005 22 60.0005C23.6569 60.0005 25 58.6573 25 57.0005V52.9755L31.747 59.2005C32.3001 59.7144 33.027 60.0001 33.782 60.0005H33.882C35.1152 59.9986 36.2217 59.2422 36.6711 58.0938C37.1205 56.9454 36.8214 55.6389 35.917 54.8005L28.483 47.9385C29.3733 47.7169 29.9987 46.918 30 46.0005V44.0005H38C39.1046 44.0005 40 43.1051 40 42.0005H41C41.8433 41.9987 42.6463 41.6397 43.21 41.0125L52.01 57.7345C52.7484 59.1289 54.1972 60.0009 55.775 60.0005C56.3477 60.0008 56.9143 59.8837 57.44 59.6565C59.4666 58.7712 60.4784 56.4821 59.769 54.3875L52.976 34.6005C52.7027 33.8112 52.1143 33.1707 51.351 32.8315C51.0955 32.7237 50.8263 32.652 50.551 32.6185C51.5419 30.7469 51.6301 28.5268 50.791 26.5825C49.3543 23.378 46.9885 20.6788 44 18.8345V5.00049C44 3.34363 42.6569 2.00049 41 2.00049H29C29 0.895919 28.1046 0.000488281 27 0.000488281H17C15.8954 0.000488281 15 0.895919 15 2.00049H3C1.34315 2.00049 0 3.34363 0 5.00049V39.0005C0 40.6573 1.34315 42.0005 3 42.0005ZM10.9 57.7355C10.7153 57.9059 10.4733 58.0005 10.222 58.0005H10.122C9.71021 58.0005 9.34054 57.748 9.19066 57.3645C9.04078 56.9809 9.14134 56.5447 9.444 56.2655L18.391 48.0005H19V50.2525L10.9 57.7355ZM23 57.0005C23 57.5528 22.5523 58.0005 22 58.0005C21.4477 58.0005 21 57.5528 21 57.0005V48.0005H23V57.0005ZM34.816 57.3645C34.6716 57.7522 34.2987 58.007 33.885 58.0005H33.785C33.5335 58.001 33.2911 57.9059 33.107 57.7345L25 50.2525V48.0005H25.609L34.562 56.2655C34.8704 56.5413 34.9721 56.9813 34.816 57.3645ZM28 46.0005H16V44.0005H28V46.0005ZM29 42.0005H6V40.0005H38V42.0005H29ZM56.647 57.8165C55.5721 58.274 54.3259 57.8337 53.777 56.8025L47.737 45.3215L53.665 42.7625L57.878 55.0325C58.2524 56.1393 57.7177 57.3486 56.647 57.8165ZM51.085 35.2495L53.013 40.8655L46.803 43.5455L44.038 38.2915C43.9086 38.045 43.8878 37.7557 43.9806 37.4932C44.0734 37.2307 44.2714 37.0188 44.527 36.9085L49.742 34.6565C49.9967 34.5434 50.2873 34.5434 50.542 34.6565C50.7989 34.7682 50.9963 34.9838 51.085 35.2495ZM49.007 31.2005C48.521 32.4349 47.5614 33.4237 46.342 33.9465C43.807 35.0401 40.8654 33.8722 39.771 31.3375C39.0496 29.6321 39.0188 27.7132 39.685 25.9855C40.4324 26.3949 41.2689 26.6143 42.121 26.6245C42.7992 26.6217 43.4695 26.4791 44.09 26.2055C45.1987 25.736 46.1629 24.9806 46.884 24.0165C47.7229 25.0364 48.4183 26.1662 48.951 27.3745C49.4799 28.5912 49.5 29.9689 49.007 31.2005ZM45.48 22.5005C44.9695 23.3403 44.2044 23.9954 43.296 24.3705C42.2523 24.8022 41.0572 24.6403 40.166 23.9465C40.3013 23.1166 40.2001 22.2655 39.874 21.4905C39.4403 20.4956 38.8104 19.5984 38.022 18.8525C40.8475 19.1954 43.4749 20.4805 45.48 22.5005ZM17 2.00049H27V4.00049H17V2.00049ZM2 5.00049C2 4.4482 2.44772 4.00049 3 4.00049H15V5.00049C15 5.55277 15.4477 6.00049 16 6.00049H28C28.5523 6.00049 29 5.55277 29 5.00049V4.00049H41C41.5523 4.00049 42 4.4482 42 5.00049V17.8005C39.7705 16.807 37.2779 16.5676 34.9 17.1185C34.4783 17.2232 34.1724 17.5883 34.1432 18.0218C34.114 18.4554 34.3681 18.8582 34.772 19.0185C36.2188 19.6784 37.3793 20.8375 38.041 22.2835C38.3135 23.2749 38.2325 24.3302 37.812 25.2685C37.8 25.3095 37.788 25.3535 37.776 25.3945C35.0482 23.1161 33.0302 20.104 31.961 16.7145C31.8343 16.2912 31.4448 16.0013 31.003 16.0013C30.5612 16.0013 30.1717 16.2912 30.045 16.7145C28.559 21.6805 24.93 25.1145 21.884 27.2365C20.032 25.069 18.6946 22.5104 17.972 19.7525C17.8591 19.3095 17.4601 18.9995 17.003 18.9995C16.5459 18.9995 16.1469 19.3095 16.034 19.7525C13.619 29.1325 4.7 33.0425 4.608 33.0805C4.11026 33.303 3.88252 33.8833 4.09601 34.385C4.3095 34.8867 4.88553 35.1249 5.391 34.9205C10.5498 32.5081 14.6699 28.322 17 23.1255C19.3292 28.3239 23.4493 32.5118 28.609 34.9255C28.7329 34.9769 28.8659 35.0024 29 35.0005C29.4754 35.001 29.8854 34.6668 29.9808 34.201C30.0761 33.7353 29.8304 33.2668 29.393 33.0805C27.1171 31.9767 25.0411 30.5015 23.25 28.7155C26.5572 26.46 29.2266 23.3893 31 19.8005C32.4747 22.8375 34.6225 25.4982 37.28 27.5805C37.0644 29.1285 37.2911 30.7059 37.934 32.1305C38.7745 34.0742 40.4519 35.5312 42.494 36.0915C42.3263 36.3165 42.1916 36.5644 42.094 36.8275C41.9177 37.3423 41.8852 37.8955 42 38.4275V39.0005C42 39.5528 41.5523 40.0005 41 40.0005H40V39.0005C40 38.4482 39.5523 38.0005 39 38.0005H5C4.44772 38.0005 4 38.4482 4 39.0005V40.0005H3C2.44772 40.0005 2 39.5528 2 39.0005V5.00049Z" fill="#444557"/>
<path d="M11 18.0005C13.7614 18.0005 16 15.7619 16 13.0005C16 10.2391 13.7614 8.00049 11 8.00049C8.23858 8.00049 6 10.2391 6 13.0005C6.00331 15.7605 8.23995 17.9972 11 18.0005ZM11 10.0005C12.6569 10.0005 14 11.3436 14 13.0005C14 14.6573 12.6569 16.0005 11 16.0005C9.34315 16.0005 8 14.6573 8 13.0005C8 11.3436 9.34315 10.0005 11 10.0005Z" fill="#444557"/>
</svg>
